REM DIRINDEX 1\2,1\4,1\3\5,1\3\6,1\3\7
REM DIRNAME folder01,folder02,folder03,folder04,folder05,folder06,folder07
TITLE ""
FILE "CD3Track11.mp3" MP3
  TRACK 01 AUDIO
    TITLE "0:"
    INDEX 01 00:00:00
  TRACK 02 AUDIO
    TITLE "5:cjc082_2484"
    INDEX 01 00:00:27
  TRACK 03 AUDIO
    TITLE "0:"
    INDEX 01 00:01:42
  TRACK 04 AUDIO
    TITLE "6:cjc082_2485"
    INDEX 01 00:02:18
  TRACK 05 AUDIO
    TITLE "0:"
    INDEX 01 00:03:74
  TRACK 06 AUDIO
    TITLE "5:cjc082_2486"
    INDEX 01 00:04:48
  TRACK 07 AUDIO
    TITLE "0:"
    INDEX 01 00:05:65
  TRACK 08 AUDIO
    TITLE "6:cjc082_2487"
    INDEX 01 00:06:39
  TRACK 09 AUDIO
    TITLE "0:"
    INDEX 01 00:07:54
  TRACK 10 AUDIO
    TITLE "5:cjc082_2488"
    INDEX 01 00:08:26
  TRACK 11 AUDIO
    TITLE "0:"
    INDEX 01 00:09:57
  TRACK 12 AUDIO
    TITLE "6:cjc082_2489"
    INDEX 01 00:10:27
  TRACK 13 AUDIO
    TITLE "0:"
    INDEX 01 00:12:11
  TRACK 14 AUDIO
    TITLE "5:cjc082_2490"
    INDEX 01 00:12:58
  TRACK 15 AUDIO
    TITLE "0:"
    INDEX 01 00:13:71
  TRACK 16 AUDIO
    TITLE "6:cjc082_2491"
    INDEX 01 00:14:43
  TRACK 17 AUDIO
    TITLE "0:"
    INDEX 01 00:15:50
  TRACK 18 AUDIO
    TITLE "5:cjc082_2492"
    INDEX 01 00:16:26
  TRACK 19 AUDIO
    TITLE "0:"
    INDEX 01 00:17:41
  TRACK 20 AUDIO
    TITLE "6:cjc082_2493"
    INDEX 01 00:18:19
  TRACK 21 AUDIO
    TITLE "0:"
    INDEX 01 00:19:26
  TRACK 22 AUDIO
    TITLE "5:cjc082_2494"
    INDEX 01 00:20:00
  TRACK 23 AUDIO
    TITLE "0:"
    INDEX 01 00:21:15
  TRACK 24 AUDIO
    TITLE "6:cjc082_2495"
    INDEX 01 00:21:64
  TRACK 25 AUDIO
    TITLE "0:"
    INDEX 01 00:23:48
  TRACK 26 AUDIO
    TITLE "5:cjc082_2496"
    INDEX 01 00:24:20
  TRACK 27 AUDIO
    TITLE "0:"
    INDEX 01 00:25:41
  TRACK 28 AUDIO
    TITLE "6:cjc082_2497"
    INDEX 01 00:26:17
  TRACK 29 AUDIO
    TITLE "0:"
    INDEX 01 00:28:08
  TRACK 30 AUDIO
    TITLE "5:cjc082_2498"
    INDEX 01 00:28:53
  TRACK 31 AUDIO
    TITLE "0:"
    INDEX 01 00:29:62
  TRACK 32 AUDIO
    TITLE "6:cjc082_2499"
    INDEX 01 00:30:36
  TRACK 33 AUDIO
    TITLE "0:"
    INDEX 01 00:31:65
  TRACK 34 AUDIO
    TITLE "5:cjc082_2500"
    INDEX 01 00:32:39
  TRACK 35 AUDIO
    TITLE "0:"
    INDEX 01 00:33:60
  TRACK 36 AUDIO
    TITLE "6:cjc082_2501"
    INDEX 01 00:34:32
  TRACK 37 AUDIO
    TITLE "0:"
    INDEX 01 00:35:47
  TRACK 38 AUDIO
    TITLE "5:cjc082_2502"
    INDEX 01 00:36:19
  TRACK 39 AUDIO
    TITLE "0:"
    INDEX 01 00:37:38
  TRACK 40 AUDIO
    TITLE "6:cjc082_2503"
    INDEX 01 00:38:14
  TRACK 41 AUDIO
    TITLE "0:"
    INDEX 01 00:39:33
  TRACK 42 AUDIO
    TITLE "5:cjc082_2504"
    INDEX 01 00:40:03
  TRACK 43 AUDIO
    TITLE "0:"
    INDEX 01 00:41:20
  TRACK 44 AUDIO
    TITLE "6:cjc082_2505"
    INDEX 01 00:41:71
  TRACK 45 AUDIO
    TITLE "0:"
    INDEX 01 00:43:23
  TRACK 46 AUDIO
    TITLE "5:cjc082_2506"
    INDEX 01 00:43:70
  TRACK 47 AUDIO
    TITLE "0:"
    INDEX 01 00:45:32
  TRACK 48 AUDIO
    TITLE "6:cjc082_2507"
    INDEX 01 00:46:06
  TRACK 49 AUDIO
    TITLE "0:"
    INDEX 01 00:47:36
  TRACK 50 AUDIO
    TITLE "5:cjc082_2508"
    INDEX 01 00:48:08
  TRACK 51 AUDIO
    TITLE "0:"
    INDEX 01 00:49:23
  TRACK 52 AUDIO
    TITLE "6:cjc082_2509"
    INDEX 01 00:50:01
  TRACK 53 AUDIO
    TITLE "0:"
    INDEX 01 00:52:06
  TRACK 54 AUDIO
    TITLE "5:cjc082_2510"
    INDEX 01 00:52:51
  TRACK 55 AUDIO
    TITLE "0:"
    INDEX 01 00:53:62
  TRACK 56 AUDIO
    TITLE "6:cjc082_2511"
    INDEX 01 00:54:44
  TRACK 57 AUDIO
    TITLE "0:"
    INDEX 01 00:56:29
  TRACK 58 AUDIO
    TITLE "5:cjc082_2512"
    INDEX 01 00:57:01
  TRACK 59 AUDIO
    TITLE "0:"
    INDEX 01 00:58:24
  TRACK 60 AUDIO
    TITLE "6:cjc082_2513"
    INDEX 01 00:59:00
  TRACK 61 AUDIO
    TITLE "0:"
    INDEX 01 01:02:03
  TRACK 62 AUDIO
    TITLE "7:cjc082_2514"
    INDEX 01 01:03:45
  TRACK 63 AUDIO
    TITLE "0:"
    INDEX 01 01:14:39
